ffmpeg started on 2016-11-27 at 03:40:24
Report written to "Output/NVENCh264/results/ffmpeg/old_town_cross_2160p50llhq2500k.log"
Command line:
Tools/ffmpeg/ffmpeg -benchmark -y -i Input/y4m/old_town_cross_2160p50.y4m -c:v h264_nvenc -preset llhq -b:v 2500k -an Output/NVENCh264/encoded/old_town_cross_2160p50llhq2500k.mkv
ffmpeg version N-82227-gdb23fde Copyright (c) 2000-2016 the FFmpeg developers
  built with gcc 5.4.0 (Ubuntu 5.4.0-6ubuntu1~16.04.2) 20160609
  configuration: --prefix=/home/jaroslav/ffmpeg_build --pkg-config-flags=--static --extra-cflags=-I/home/jaroslav/ffmpeg_build/include --extra-ldflags=-L/home/jaroslav/ffmpeg_build/lib --bindir=/home/jaroslav/bin --enable-gpl --enable-libass --enable-libfdk-aac --enable-libfreetype --enable-libmp3lame --enable-libopus --enable-libtheora --enable-libvorbis --enable-libvpx --enable-libx264 --enable-libx265 --enable-nvenc --enable-libmfx --enable-libxvid --enable-libgsm --enable-libopencore-amrnb --enable-version3 --enable-nonfree
  libavutil      55. 35.100 / 55. 35.100
  libavcodec     57. 66.101 / 57. 66.101
  libavformat    57. 57.100 / 57. 57.100
  libavdevice    57.  2.100 / 57.  2.100
  libavfilter     6. 66.100 /  6. 66.100
  libswscale      4.  3.100 /  4.  3.100
  libswresample   2.  4.100 /  2.  4.100
  libpostproc    54.  2.100 / 54.  2.100
Input #0, yuv4mpegpipe, from 'Input/y4m/old_town_cross_2160p50.y4m':
  Duration: 00:00:10.00, start: 0.000000, bitrate: 4976642 kb/s
    Stream #0:0: Video: rawvideo (I420 / 0x30323449), yuv420p(progressive), 3840x2160, SAR 1:1 DAR 16:9, 50 fps, 50 tbr, 50 tbn, 50 tbc
[h264_nvenc @ 0x378c120] The variable bitrate rate-control requires the 'qmin' and/or 'qmax' option set.
Output #0, matroska, to 'Output/NVENCh264/encoded/old_town_cross_2160p50llhq2500k.mkv':
  Metadata:
    encoder         : Lavf57.57.100
    Stream #0:0: Video: h264 (h264_nvenc) (Main) (H264 / 0x34363248), yuv420p, 3840x2160 [SAR 1:1 DAR 16:9], q=-1--1, 2500 kb/s, 50 fps, 1k tbn, 50 tbc
    Metadata:
      encoder         : Lavc57.66.101 h264_nvenc
    Side data:
      cpb: bitrate max/min/avg: 0/0/2500000 buffer size: 5000000 vbv_delay: -1
Stream mapping:
  Stream #0:0 -> #0:0 (rawvideo (native) -> h264 (h264_nvenc))
Press [q] to stop, [?] for help
frame=   19 fps=0.0 q=0.0 size=       0kB time=00:00:00.00 bitrate=N/A speed=   0x    frame=   32 fps= 26 q=44.0 size=       1kB time=00:00:00.02 bitrate= 284.6kbits/s speed=0.0172x    frame=   50 fps= 29 q=49.0 size=       1kB time=00:00:00.38 bitrate=  15.7kbits/s speed=0.219x    frame=   67 fps= 27 q=49.0 size=       1kB time=00:00:00.72 bitrate=   8.3kbits/s speed=0.286x    frame=   85 fps= 28 q=49.0 size=       1kB time=00:00:01.08 bitrate=   5.5kbits/s speed=0.356x    frame=   92 fps= 26 q=49.0 size=       1kB time=00:00:01.22 bitrate=   4.9kbits/s speed=0.344x    frame=  110 fps= 27 q=44.0 size=       1kB time=00:00:01.58 bitrate=   3.8kbits/s speed=0.388x    frame=  128 fps= 28 q=41.0 size=       1kB time=00:00:01.94 bitrate=   3.1kbits/s speed=0.423x    frame=  146 fps= 29 q=41.0 size=       1kB time=00:00:02.30 bitrate=   2.6kbits/s speed=0.451x    frame=  164 fps= 29 q=40.0 size=       1kB time=00:00:02.66 bitrate=   2.2kbits/s speed=0.474x    frame=  182 fps= 30 q=39.0 size=       1kB time=00:00:03.02 bitrate=   2.0kbits/s speed=0.493x    frame=  198 fps= 29 q=39.0 size=       1kB time=00:00:03.34 bitrate=   1.8kbits/s speed=0.488x    frame=  216 fps= 29 q=39.0 size=       1kB time=00:00:03.70 bitrate=   1.6kbits/s speed=0.503x    frame=  234 fps= 30 q=39.0 size=       1kB time=00:00:04.06 bitrate=   1.5kbits/s speed=0.516x    frame=  252 fps= 30 q=39.0 size=       1kB time=00:00:04.42 bitrate=   1.4kbits/s speed=0.527x    frame=  270 fps= 30 q=40.0 size=       1kB time=00:00:04.78 bitrate=   1.2kbits/s speed=0.538x    frame=  287 fps= 31 q=44.0 size=    1470kB time=00:00:05.12 bitrate=2351.6kbits/s speed=0.545x    frame=  304 fps= 30 q=48.0 size=    1470kB time=00:00:05.46 bitrate=2205.1kbits/s speed=0.537x    frame=  322 fps= 30 q=49.0 size=    1470kB time=00:00:05.82 bitrate=2068.8kbits/s speed=0.545x    frame=  330 fps= 30 q=49.0 size=    1470kB time=00:00:05.98 bitrate=2013.4kbits/s speed=0.535x    frame=  348 fps= 30 q=49.0 size=    1470kB time=00:00:06.34 bitrate=1899.1kbits/s speed=0.542x    frame=  366 fps= 30 q=47.0 size=    1470kB time=00:00:06.70 bitrate=1797.1kbits/s speed=0.549x    frame=  373 fps= 29 q=47.0 size=    1470kB time=00:00:06.84 bitrate=1760.3kbits/s speed=0.538x    frame=  391 fps= 30 q=43.0 size=    1470kB time=00:00:07.20 bitrate=1672.3kbits/s speed=0.544x    frame=  398 fps= 29 q=43.0 size=    1470kB time=00:00:07.34 bitrate=1640.4kbits/s speed=0.534x    frame=  416 fps= 29 q=42.0 size=    1470kB time=00:00:07.70 bitrate=1563.7kbits/s speed=0.54x    frame=  434 fps= 29 q=41.0 size=    1470kB time=00:00:08.06 bitrate=1493.9kbits/s speed=0.546x    frame=  452 fps= 30 q=41.0 size=    1470kB time=00:00:08.42 bitrate=1430.0kbits/s speed=0.551x    frame=  470 fps= 30 q=42.0 size=    1470kB time=00:00:08.78 bitrate=1371.4kbits/s speed=0.556x    frame=  488 fps= 30 q=41.0 size=    1470kB time=00:00:09.14 bitrate=1317.4kbits/s speed=0.56x    frame=  500 fps= 30 q=42.0 Lsize=    3000kB time=00:00:09.98 bitrate=2462.6kbits/s speed=0.597x    
video:2996kB audio:0kB subtitle:0kB other streams:0kB global headers:0kB muxing overhead: 0.141260%
bench: utime=1.124s
bench: maxrss=1420736kB
